<svg height="432pt" viewBox="0 0 432.00109 432" width="432pt" xmlns="http://www.w3.org/2000/svg" xmlns:xlink="http://www.w3.org/1999/xlink"><linearGradient id="a" gradientUnits="userSpaceOnUse" x1="30.344546" x2="401.656546" y1="425.65638" y2="54.34438"><stop offset="0" stop-color="#41dfd0"/><stop offset="1" stop-color="#ee83ef"/></linearGradient><path d="m32 328.984375v95.015625c0 4.417969 3.582031 8 8 8h352c4.417969 0 8-3.582031 8-8v-95.015625c42.667969-69.28125 42.667969-156.6875 0-225.96875v-47.015625c0-4.417969-3.582031-8-8-8h-40.449219c-79.035156-64-192.066406-64-271.101562 0h-40.449219c-4.417969 0-8 3.582031-8 8v47.015625c-42.667969 69.28125-42.667969 156.6875 0 225.96875zm16 22.566406c9.503906 11.765625 20.210938 22.507813 31.945312 32.050781.121094.109376.175782.269532.304688.375.925781.75 1.933594 1.398438 2.871094 2.128907 3.109375 2.441406 6.285156 4.792969 9.527344 7.054687 1.222656.855469 2.398437 1.710938 3.671874 2.542969 3.878907 2.59375 7.871094 5.042969 11.9375 7.386719.703126.40625 1.375.886718 2.085938 1.285156.167969.097656.34375.128906.519531.210938 7.652344 4.28125 15.558594 8.09375 23.671875 11.414062h-86.535156zm38.234375-287.550781h96.460937c-8.300781 9.570312-12.042968 22.273438-10.257812 34.816406 1.785156 12.546875 8.921875 23.699219 19.5625 30.574219v7.28125h-12l-54.328125-54.328125c-3.125-3.121094-8.1875-3.121094-11.3125 0l-24 24c-3.121094 3.125-3.121094 8.1875 0 11.3125l19.015625 19.015625h-37.375c-4.417969 0-8 3.582031-8 8v32c0 4.417969 3.582031 8 8 8h88v92.390625l-75.597656 89.335938c-14.023438-12.277344-26.273438-26.441407-36.402344-42.085938v-216.625c10.566406-16.332031 23.445312-31.046875 38.234375-43.6875zm297.765625 43.6875v216.625c-10.128906 15.644531-22.378906 29.808594-36.398438 42.085938l-75.601562-89.335938v-92.390625h88c4.417969 0 8-3.582031 8-8v-32c0-4.417969-3.582031-8-8-8h-37.359375l19.015625-19.015625c3.125-3.125 3.125-8.1875 0-11.3125l-24-24c-3.125-3.121094-8.1875-3.121094-11.3125 0l-54.34375 54.328125h-12v-7.28125c10.644531-6.875 17.78125-18.027344 19.566406-30.574219 1.785156-12.542968-1.960937-25.246094-10.261718-34.816406h96.464843c14.785157 12.640625 27.664063 27.355469 38.230469 43.6875zm-50.503906 270.015625c-4.359375 3.203125-8.800782 6.203125-13.40625 9.007813l-.707032.433593-47.382812-54.152343v-31.152344l63.199219 74.664062c-.566407.410156-1.144531.792969-1.703125 1.199219zm-234.992188 0c-.558594-.40625-1.136718-.796875-1.6875-1.199219l63.183594-74.664062v31.152344l-47.382812 54.152343-.703126-.433593c-4.59375-2.804688-9.050781-5.839844-13.410156-9.007813zm33.496094-241.03125-24.6875-24.671875 12.6875-12.6875 37.359375 37.359375zm68 16c4.417969 0 8-3.582031 8-8v-19.871094c.003906-3.03125-1.710938-5.804687-4.421875-7.160156-11.65625-5.769531-17.804687-18.808594-14.839844-31.472656 2.960938-12.664063 14.257813-21.621094 27.261719-21.621094 13.007812 0 24.300781 8.957031 27.265625 21.621094 2.960937 12.664062-3.183594 25.703125-14.839844 31.472656-2.714843 1.355469-4.425781 4.128906-4.425781 7.160156v19.902344c0 4.417969 3.582031 8 8 8h120v16h-88c-4.417969 0-8 3.582031-8 8v235.234375c-5.28125 1.0625-10.625 1.925781-16 2.566406v-117.832031c0-13.253906-10.746094-24-24-24s-24 10.746094-24 24v117.832031c-5.375-.640625-10.71875-1.503906-16-2.566406v-235.265625c0-4.417969-3.582031-8-8-8h-88v-16zm74.640625-16 37.359375-37.359375 12.6875 12.6875-24.6875 24.671875zm-114.640625 220.625v50.703125c-11.371094-3.316406-22.417969-7.644531-33.015625-12.9375zm48 58.503906v-119.128906c0-4.417969 3.582031-8 8-8s8 3.582031 8 8v119.128906c-2.65625.105469-5.320312.199219-8 .199219s-5.34375-.09375-8-.199219zm64-58.503906 33.015625 37.726563c-10.59375 5.304687-21.644531 9.648437-33.015625 12.976562zm112 58.703125h-86.535156c8.117187-3.320312 16.019531-7.132812 23.671875-11.414062.175781-.082032.351562-.113282.519531-.210938.710938-.398438 1.382812-.878906 2.089844-1.285156 4.0625-2.34375 8.054687-4.800782 11.933594-7.386719 1.242187-.796875 2.449218-1.6875 3.671874-2.542969 3.242188-2.265625 6.417969-4.617187 9.527344-7.054687.9375-.730469 1.945313-1.378907 2.875-2.128907.125-.105468.183594-.265624.300782-.375 11.738281-9.542968 22.441406-20.285156 31.945312-32.050781zm32-200c.027344 26.929688-5.417969 53.582031-16 78.34375v-156.6875c10.582031 24.761719 16.027344 51.414062 16 78.34375zm-32-135.550781c-4.621094-5.726563-9.527344-11.214844-14.703125-16.449219h14.703125zm-168-64.449219c38.4375-.03125 76.0625 11.085938 108.3125 32h-216.625c32.25-20.914062 69.875-32.03125 108.3125-32zm-168 48h14.703125c-5.171875 5.234375-10.082031 10.722656-14.703125 16.449219zm-16 230.34375c-21.332031-50.050781-21.332031-106.636719 0-156.6875zm0 0" fill="url(#a)"/></svg>