<svg height="512pt" viewBox="0 0 512.0016 512" width="512pt" xmlns="http://www.w3.org/2000/svg"><path d="m306 284c-61.101562 0-115.460938 13.660156-150.21875 34.890625l43.1875 129.5.03125-.011719c30.480469 9.859375 67.320312 15.621094 107 15.621094 104.929688 0 196-40.289062 196-90s-91.070312-90-196-90zm0 0" fill="#4e7ba6"/><path d="m240.199219 367s-38.75-26.078125-74.367188-17.691406l-.03125-.109375c-.910156-10.988281-4.890625-21.289063-10.019531-30.308594-11.851562-20.859375-29.78125-34.890625-29.78125-34.890625s-36.800781 28.800781-39.800781 65.199219c-35.597657-8.398438-76.199219 13.800781-76.199219 13.800781s18 47.800781 51.601562 62c-19 31.199219-6.199218 77-6.199218 77s46.597656-2.601562 70.597656-30.199219c23.800781 27.597657 70.601562 30.199219 70.601562 30.199219s7.417969-26.96875 2.367188-53.609375c-1.519531-8.082031-4.199219-16.128906-8.570312-23.390625 33.800781-14.199219 49.800781-58 49.800781-58zm0 0" fill="#f45f6b"/><path d="m306 136c82.839844 0 150 35.339844 150 74s-67.160156 74-150 74-150-35.339844-150-74 67.160156-74 150-74zm0 0" fill="#4e7ba6"/><path d="m306 10c60.75 0 110 29.859375 110 63s-49.25 63-110 63-110-29.859375-110-63 49.25-63 110-63zm0 0" fill="#4e7ba6"/><path d="m146 404c0 10.914062-8.839844 20-20 20-10.980469 0-20-8.882812-20-20 0-.199219 0-.398438.019531-.601562.308594-10.875 9.246094-19.398438 19.980469-19.398438 11.121094 0 20 9.042969 20 20zm0 0" fill="#ffd059"/><path d="m316 314c-5.519531 0-10 4.480469-10 10s4.480469 10 10 10 10-4.480469 10-10-4.480469-10-10-10zm0 0"/><path d="m382.21875 66.21875c-8.367188-9.066406-35.066406-26.21875-76.21875-26.21875-5.523438 0-10 4.476562-10 10s4.476562 10 10 10c35.316406 0 56.785156 14.652344 61.519531 19.78125 3.746094 4.058594 10.074219 4.3125 14.132813.570312 4.058594-3.746093 4.3125-10.074218.566406-14.132812zm0 0"/><path d="m384.855469 179.929688c-16.125-6.351563-42.898438-13.929688-78.855469-13.929688-5.519531 0-10 4.476562-10 10s4.480469 10 10 10c58.835938 0 94.816406 22.167969 101.269531 30.242188 3.441407 4.308593 9.730469 5.023437 14.054688 1.570312 4.3125-3.445312 5.015625-9.738281 1.570312-14.054688-4.980469-6.230468-17.589843-15.765624-38.039062-23.828124zm0 0"/><path d="m447.480469 301.253906c-17.882813-8.117187-38.230469-14.546875-60.121094-19.121094 35.445313-11.152343 78.640625-35.28125 78.640625-72.132812 0-41.210938-53.355469-66.542969-93.730469-76.34375 5.828125-2.378906 11.375-5.070312 16.550781-8.089844 23.628907-13.777344 37.179688-32.9375 37.179688-52.566406 0-19.625-13.550781-38.789062-37.179688-52.566406-22.597656-13.175782-52.011718-20.433594-82.820312-20.433594s-60.222656 7.257812-82.816406 20.433594c-23.632813 13.78125-37.183594 32.9375-37.183594 52.566406s13.550781 38.789062 37.183594 52.566406c5.175781 3.019532 10.722656 5.710938 16.546875 8.089844-40.335938 9.792969-93.730469 35.113281-93.730469 76.34375 0 36.871094 43.273438 61.097656 79.105469 72.285156-24.820313 5.351563-47.273438 13.195313-65.957031 23.179688-12.042969-17.535156-26.296876-28.800782-26.984376-29.339844-3.621093-2.835938-8.707031-2.835938-12.324218 0-1.496094 1.167969-33.605469 26.671875-41.886719 61.609375-35.671875-3.492187-71.117187 15.597656-72.75 16.488281-4.371094 2.390625-6.316406 7.636719-4.558594 12.300782.722657 1.925781 16.695313 43.535156 47.597657 62.753906-13.957032 33.253906-2.992188 73.554687-2.472657 75.414062 1.214844 4.339844 5.167969 7.308594 9.628907 7.308594.183593 0 .371093-.007812.558593-.015625 1.890625-.105469 42.753907-2.667969 70.023438-26.125 27.15625 23.460937 68.167969 26.019531 70.066406 26.125.1875.007813.375.015625.558594.015625 4.476562 0 8.4375-2.988281 9.636719-7.347656.269531-.972656 5.394531-19.988282 4.347656-42.464844 29.097656 7.742188 61.746094 11.808594 95.414062 11.808594 52.511719 0 102.757813-9.675782 141.480469-27.25 41.601563-18.882813 64.515625-44.71875 64.515625-72.746094 0-28.03125-22.914062-53.863281-64.519531-72.746094zm-214.222657-192.964844c-17.324218-10.101562-27.257812-22.960937-27.257812-35.289062 0-12.324219 9.933594-25.1875 27.257812-35.289062 19.585938-11.421876 45.417969-17.710938 72.742188-17.710938s53.15625 6.289062 72.742188 17.710938c17.324218 10.101562 27.257812 22.964843 27.257812 35.289062 0 12.328125-9.933594 25.1875-27.257812 35.289062-19.585938 11.421876-45.417969 17.710938-72.742188 17.710938s-53.15625-6.289062-72.742188-17.710938zm-67.257812 101.710938c0-30.210938 59.871094-64 140-64s140 33.789062 140 64-59.871094 64-140 64-140-33.789062-140-64zm27.601562 202.132812c-10.261718-12.65625-25.484374-22.121093-45.320312-28.210937-2.605469-2.894531-5.730469-5.222656-9.183594-6.898437 25.0625-26.878907 56.308594-23.105469 88.382813-5.894532-5.214844 10.78125-16.539063 30.40625-33.878907 41.003906zm-67.601562 1.867188c-5.464844 0-9.941406-4.386719-10-9.984375.007812-.113281.011719-.222656.015625-.332031.15625-5.449219 4.609375-9.683594 9.984375-9.683594 5.5625 0 10 4.574219 10 10 0 5.324219-4.292969 10-10 10zm.003906-116.636719c5.792969 5.546875 14.527344 14.925781 21.085938 26.472657 3.570312 6.273437 6.054687 12.464843 7.484375 18.492187-18.597657 7.089844-32.082031 21.851563-40.675781 34.238281-3.621094 1.585938-6.824219 3.835938-9.484376 6.59375-13.394531-24.25-13.640624-52.066406 21.589844-85.796875zm-102.914062 70.519531c11.371094-4.855468 32.699218-12.277343 53.019531-10.234374 1.101563 19.886718 10.980469 37.34375 20.066406 49.390624.398438 3.925782 1.566407 7.667969 3.375 11.054688-28.609375 5.542969-53.925781-3.621094-76.460937-50.210938zm40.175781 123.125c-2.132813-12.066406-4.503906-35.035156 3.347656-53.824218 17.417969 4.566406 36.082031 1.984375 53.089844-3.878906 2.0625.445312 4.164063.695312 6.296875.695312 1.738281 0 3.449219-.148438 5.125-.433594-3.394531 27.070313-18.496094 49.753906-67.859375 57.441406zm125.441406 0c-12-1.859374-34.1875-6.949218-49.546875-20.1875 8.742188-13.660156 13.003906-31.015624 12.703125-51.671874 2.011719-3.414063 3.308594-7.148438 3.839844-11.066407 18.769531 8.753907 29.535156 21.398438 33.441406 42.167969 2.9375 15.488281 1.183594 31.398438-.4375 40.757812zm250.507813-62.472656c-35.65625 16.183594-84.210938 25.464844-133.214844 25.464844-35.21875 0-69.148438-4.648438-98.554688-13.46875-1.003906-3.902344-2.230468-7.632812-3.695312-11.164062 30.839844-18.699219 45.191406-57.152344 45.84375-58.933594 1.578125-4.320313.003906-9.160156-3.8125-11.726563-1.574219-1.0625-35.820312-23.765625-71.679688-20.785156-1.167968-4.992187-2.875-10.015625-5.109374-15.042969 34.613281-18.421875 83.867187-28.878906 137.007812-28.878906 49.003906 0 97.558594 9.285156 133.214844 25.464844 33.542968 15.226562 52.785156 35.101562 52.785156 54.535156s-19.238281 39.308594-52.785156 54.535156zm0 0"/><path d="m438.117188 341.40625c-22.160157-11.074219-50.867188-19.554688-80.839844-23.875-5.476563-.785156-10.539063 3.007812-11.324219 8.472656-.789063 5.464844 3.003906 10.535156 8.472656 11.324219 33.21875 4.789063 56.792969 13.53125 70.71875 20.023437 17.128907 7.984376 25.277344 15.246094 26.9375 17.929688.628907 4.917969 4.832031 8.71875 9.917969 8.71875 5.523438 0 10-4.476562 10-10 0-12.941406-18.425781-24.867188-33.882812-32.59375zm0 0"/></svg>