<svg height="512" viewBox="0 0 128 128" width="512" xmlns="http://www.w3.org/2000/svg" xmlns:xlink="http://www.w3.org/1999/xlink"><linearGradient id="a" gradientUnits="userSpaceOnUse" x1="100.111" x2="9.639" y1="118.361" y2="27.889"><stop offset="0" stop-color="#fd5c70"/><stop offset="1" stop-color="#ffce64"/></linearGradient><path d="m64 0a64.018 64.018 0 0 0 -55.143 96.509l-8.783 29.235a1.75 1.75 0 0 0 2.179 2.179l29.234-8.782a64.007 64.007 0 1 0 32.513-119.141zm0 124.5a60.4 60.4 0 0 1 -31.368-8.756 1.747 1.747 0 0 0 -1.412-.181l-26.858 8.072 8.069-26.859a1.751 1.751 0 0 0 -.18-1.412 60.509 60.509 0 1 1 51.749 29.136zm56-60.5a56.017 56.017 0 0 1 -85.035 47.9l-2.378-1.445-18.4 5.526a1.749 1.749 0 0 1 -2.179-2.179l5.527-18.4-1.435-2.374a56.011 56.011 0 0 1 67.834-81.365 1.75 1.75 0 0 1 -1.249 3.269 52.514 52.514 0 0 0 -63.6 76.278l1.85 3.044a1.752 1.752 0 0 1 .18 1.413l-4.815 16.033 16.027-4.815a1.75 1.75 0 0 1 1.412.18l3.045 1.85a52.5 52.5 0 0 0 57.729-87.615 1.75 1.75 0 1 1 2.039-2.844 56.186 56.186 0 0 1 23.448 45.544zm-58.01 19.439a1.75 1.75 0 0 1 1.155-3.3 22.468 22.468 0 0 0 3.224.861 1.75 1.75 0 1 1 -.65 3.439 25.981 25.981 0 0 1 -3.729-1zm17.81-12.359 9.633-3.272a1.748 1.748 0 0 1 1.8.42l9.318 9.318a1.752 1.752 0 0 1 .471 1.617 27.473 27.473 0 0 1 -7.4 13.725c-5.348 5.348-12.641 8.181-20.857 8.182a37.615 37.615 0 0 1 -4.416-.265c-9.849-1.165-19.549-6.08-27.312-13.842s-12.677-17.463-13.837-27.315c-1.183-10.009 1.628-18.984 7.917-25.273a27.473 27.473 0 0 1 13.725-7.4 1.751 1.751 0 0 1 1.617.471l9.318 9.318a1.751 1.751 0 0 1 .42 1.8l-3.277 9.636a1.749 1.749 0 0 1 -1.264 1.142l-8.236 1.9c-.887 3.021-3.007 13.475 6.428 22.911a1.75 1.75 0 1 1 -2.475 2.475c-12.6-12.6-7.168-26.909-6.931-27.511a1.75 1.75 0 0 1 1.235-1.065l8.242-1.9 2.608-7.679-7.855-7.855a23.831 23.831 0 0 0 -11.085 6.232c-5.515 5.515-7.971 13.465-6.916 22.387 1.073 9.077 5.633 18.044 12.84 25.252s16.175 11.767 25.252 12.84c8.92 1.055 16.873-1.4 22.387-6.916a23.831 23.831 0 0 0 6.235-11.085l-7.855-7.855-7.679 2.608-1.9 8.242a1.75 1.75 0 1 1 -3.41-.787l2.121-9.192a1.749 1.749 0 0 1 1.138-1.264z" fill="url(#a)"/></svg>