<svg id="Layer_1" height="512" viewBox="0 0 256 256" width="512" xmlns="http://www.w3.org/2000/svg"><g><g><g><path d="m182.03 93.183h-157.873v-17.877c0-2.673 2.167-4.839 4.839-4.839h148.195c2.673 0 4.839 2.167 4.839 4.839z" fill="#e0ebfc"/></g><g><path d="m182.03 93.183h-76.465-4.943-76.464c-12.262 6.4-19.107 14.921-19.107 23.784v92.598c0 8.255 6.692 14.946 14.946 14.946h166.194c8.255 0 14.946-6.692 14.946-14.946v-92.598c0-8.863-6.845-17.384-19.107-23.784z" fill="#e0ebfc"/></g><g><path d="m186.62 122.374v81.783c0 3.21-2.626 5.836-5.836 5.836h-155.379c-3.21 0-5.837-2.627-5.837-5.837v-81.783c0-2.986 2.421-5.407 5.407-5.407h156.237c2.987.001 5.408 2.422 5.408 5.408z" fill="#4671c6"/></g><g><path d="m153.738 182.985h-100.966c-9.089 0-16.457-7.368-16.457-16.457 0-9.089 7.368-16.457 16.457-16.457h100.966c9.089 0 16.457 7.368 16.457 16.457.001 9.088-7.368 16.457-16.457 16.457z" fill="#a4c9ff"/></g><g><path d="m100.788 55.085-12.788 24.63c-3.572 6.88-2.097 15.3 3.602 20.556 6.583 6.071 16.724 6.071 23.307 0 5.699-5.256 7.174-13.676 3.602-20.556l-12.788-24.631c-1.038-1.998-3.897-1.998-4.935.001z" fill="#ffea92"/></g><g><path d="m103.255 96.307c-2.185 0-4.273-.816-5.879-2.297-2.868-2.644-3.615-6.909-1.817-10.37l7.696-14.824 7.696 14.824c1.797 3.462 1.05 7.726-1.817 10.37-1.606 1.482-3.694 2.297-5.879 2.297z" fill="#f9a7a7"/></g><g><path d="m182.03 95.183h-157.873c-1.104 0-2-.896-2-2v-17.876c0-3.771 3.068-6.84 6.839-6.84h148.195c3.771 0 6.839 3.068 6.839 6.84v17.876c0 1.104-.895 2-2 2zm-155.873-4h153.873v-15.876c0-1.565-1.273-2.84-2.839-2.84h-148.194c-1.565 0-2.839 1.274-2.839 2.84v15.876z" fill="#3762cc"/></g><g><path d="m186.19 226.511h-166.193c-9.344 0-16.946-7.603-16.946-16.946v-92.598c0-9.688 7.167-18.764 20.181-25.558.286-.148.603-.227.925-.227h157.873c.322 0 .64.078.926.227 13.014 6.794 20.181 15.87 20.181 25.558v92.598c0 9.343-7.603 16.946-16.947 16.946zm-161.538-131.328c-11.355 6.037-17.602 13.761-17.602 21.784v92.598c0 7.139 5.808 12.946 12.946 12.946h166.194c7.139 0 12.946-5.808 12.946-12.946v-92.598c0-8.023-6.246-15.747-17.601-21.784z" fill="#3762cc"/></g><g><path d="m103.22 118.967c-1.104 0-2-.896-2-2v-12.143c0-1.104.896-2 2-2s2 .896 2 2v12.143c0 1.104-.896 2-2 2z" fill="#3762cc"/></g><g><path d="m103.255 106.788c-4.682 0-9.361-1.682-13.009-5.047-6.345-5.851-7.999-15.287-4.021-22.947l12.788-24.631c.826-1.59 2.451-2.577 4.242-2.577 1.792 0 3.417.987 4.242 2.578l12.788 24.63c3.977 7.66 2.324 17.096-4.021 22.947-3.647 3.364-8.328 5.047-13.009 5.047zm-.693-50.781-12.787 24.631c-3.148 6.063-1.839 13.532 3.183 18.163 5.774 5.326 14.82 5.325 20.594.001 5.022-4.632 6.331-12.102 3.183-18.164l-12.788-24.631c-.19-.366-.515-.421-.692-.421-.177 0-.502.055-.693.421z" fill="#3762cc"/></g><g><path d="m182.03 83.825h-157.873c-1.104 0-2-.896-2-2s.896-2 2-2h157.873c1.104 0 2 .896 2 2s-.895 2-2 2z" fill="#3762cc"/></g><g><path d="m153.738 184.984h-100.966c-10.178 0-18.458-8.28-18.458-18.457s8.28-18.457 18.458-18.457h100.966c10.177 0 18.457 8.28 18.457 18.457s-8.28 18.457-18.457 18.457zm-100.966-32.914c-7.972 0-14.458 6.485-14.458 14.457s6.486 14.457 14.458 14.457h100.966c7.972 0 14.457-6.485 14.457-14.457s-6.485-14.457-14.457-14.457z" fill="#3762cc"/></g><g><g><path d="m207.629 199.289-17.419 15.113c-4.086 3.545-5.461 9.299-3.419 14.309 2.592 6.36 9.791 9.483 16.206 7.031 5.053-1.931 8.315-6.867 8.113-12.273l-.865-23.045c-.05-1.326-1.614-2.005-2.616-1.135z" fill="#e0ebfc"/></g><g><path d="m198.557 238.562c-5.791 0-11.32-3.462-13.617-9.096-2.367-5.806-.775-12.466 3.96-16.574l17.419-15.113c1.052-.911 2.497-1.135 3.772-.58 1.275.554 2.101 1.761 2.153 3.15l.865 23.045c.233 6.267-3.543 11.979-9.398 14.216-1.69.645-3.434.952-5.154.952zm9.722-37.189-16.759 14.54c-3.44 2.985-4.597 7.824-2.877 12.043 2.164 5.311 8.284 7.963 13.64 5.917 4.255-1.626 6.999-5.776 6.828-10.329z" fill="#3762cc"/></g><g><path d="m213.217 193.575 17.419-15.113c4.086-3.545 5.461-9.299 3.419-14.309-2.592-6.36-9.791-9.483-16.206-7.031-5.053 1.931-8.315 6.867-8.113 12.273l.865 23.045c.049 1.326 1.613 2.005 2.616 1.135z" fill="#e0ebfc"/></g><g><path d="m212.189 195.966c-.482 0-.97-.099-1.435-.301-1.275-.553-2.101-1.761-2.153-3.15l-.865-23.045c-.235-6.265 3.541-11.978 9.397-14.216 7.368-2.816 15.794.835 18.772 8.145 2.367 5.806.775 12.467-3.961 16.574l-17.418 15.112c-.667.58-1.495.881-2.337.881zm1.028-2.392h.01zm9.091-35.275c-1.251 0-2.519.222-3.746.691-4.255 1.627-6.999 5.777-6.827 10.329l.832 22.171 16.758-14.539c3.441-2.984 4.598-7.824 2.878-12.043-1.669-4.094-5.688-6.609-9.895-6.609z" fill="#3762cc"/></g><g><path d="m210.378 192.436 1.631-23.003c.382-5.396-2.714-10.437-7.7-12.535-6.33-2.664-13.629.218-16.431 6.488-2.207 4.939-1.025 10.735 2.942 14.414l16.907 15.683c.971.903 2.557.277 2.651-1.047z" fill="#e0ebfc"/></g><g><path d="m210.467 200.428-1.631 23.003c-.383 5.396 2.714 10.437 7.7 12.535 6.33 2.664 13.629-.218 16.431-6.488 2.207-4.939 1.025-10.735-2.942-14.414l-16.907-15.683c-.971-.903-2.557-.277-2.651 1.047z" fill="#e0ebfc"/></g><g><path d="m214.419 196.387 23.003 1.631c5.396.383 10.437-2.714 12.535-7.7 2.664-6.33-.218-13.629-6.488-16.431-4.939-2.207-10.735-1.025-14.414 2.942l-15.683 16.907c-.904.972-.278 2.557 1.047 2.651z" fill="#e0ebfc"/></g><g><path d="m206.427 196.477-23.003-1.631c-5.396-.383-10.437 2.714-12.535 7.7-2.664 6.33.218 13.629 6.488 16.431 4.939 2.207 10.735 1.025 14.414-2.942l15.683-16.907c.903-.972.277-2.557-1.047-2.651z" fill="#e0ebfc"/></g><g><path d="m208.79 195.909c-.883 0-1.746-.33-2.425-.96l-16.907-15.684c-4.596-4.263-5.965-10.973-3.407-16.696 3.221-7.205 11.759-10.575 19.032-7.516 5.779 2.433 9.363 8.268 8.92 14.521l-1.63 23.003c-.099 1.387-.963 2.566-2.257 3.077-.433.171-.882.255-1.326.255zm-9.329-37.989c-4.081 0-8.005 2.358-9.758 6.282-1.858 4.158-.864 9.034 2.476 12.132l16.266 15.089 1.568-22.132c.322-4.543-2.282-8.783-6.48-10.55-1.325-.557-2.708-.821-4.072-.821z" fill="#3762cc"/></g><g><path d="m221.365 238.94c-1.879 0-3.78-.363-5.604-1.13-5.779-2.433-9.363-8.268-8.92-14.521l1.631-23.004c.099-1.387.963-2.566 2.257-3.077 1.294-.51 2.731-.24 3.751.706l16.906 15.684c4.596 4.262 5.966 10.972 3.408 16.695-2.413 5.4-7.814 8.647-13.429 8.647zm-8.964-37.499-1.569 22.132c-.322 4.543 2.282 8.783 6.48 10.55 5.29 2.227 11.49-.225 13.83-5.461 1.858-4.159.863-9.034-2.477-12.131zm.062-.872v.002c0-.001 0-.002 0-.002zm-1.995-.141h.01z" fill="#3762cc"/></g><g><path d="m238.322 200.05c-.346 0-.693-.013-1.042-.037l-23.003-1.631c-1.387-.099-2.566-.963-3.077-2.256-.512-1.294-.241-2.73.704-3.751l15.685-16.907c4.261-4.597 10.971-5.966 16.696-3.408 7.205 3.221 10.577 11.759 7.516 19.033-2.296 5.456-7.626 8.957-13.479 8.957zm-22.89-5.597 22.132 1.569c4.544.335 8.784-2.281 10.55-6.48 2.225-5.286-.225-11.49-5.461-13.83-4.158-1.86-9.034-.865-12.131 2.477z" fill="#3762cc"/></g><g><path d="m182.528 222.078c-2.015 0-4.047-.416-5.969-1.274-7.205-3.222-10.576-11.759-7.516-19.032 2.433-5.78 8.271-9.357 14.521-8.92l23.004 1.63c1.388.099 2.567.964 3.077 2.258.511 1.294.24 2.731-.706 3.751l-15.682 16.906c-2.832 3.052-6.744 4.681-10.729 4.681zm-.004-25.264c-4.252 0-8.125 2.543-9.793 6.508-2.225 5.285.226 11.489 5.461 13.829 4.156 1.858 9.034.864 12.133-2.476l15.088-16.266-22.132-1.568c-.253-.018-.506-.027-.757-.027zm23.761 1.658h.011zm-.001 0c.001 0 .001 0 0 0z" fill="#3762cc"/></g><g><path d="m213.28 199.226 15.113 17.419c3.545 4.086 9.299 5.461 14.309 3.419 6.36-2.592 9.483-9.791 7.031-16.206-1.931-5.053-6.867-8.315-12.273-8.113l-23.045.865c-1.327.049-2.005 1.613-1.135 2.616z" fill="#e0ebfc"/></g><g><path d="m207.565 193.638-15.113-17.419c-3.545-4.086-9.299-5.461-14.309-3.419-6.36 2.592-9.483 9.791-7.031 16.206 1.931 5.053 6.867 8.315 12.273 8.113l23.045-.865c1.327-.05 2.005-1.613 1.135-2.616z" fill="#e0ebfc"/></g><g><path d="m237.936 222.999c-4.153 0-8.213-1.771-11.054-5.044l-15.112-17.419c-.912-1.051-1.134-2.496-.58-3.772.553-1.275 1.761-2.101 3.15-2.153l23.045-.865c6.272-.242 11.979 3.542 14.216 9.398 2.817 7.371-.836 15.793-8.145 18.771-1.792.731-3.666 1.084-5.52 1.084zm-22.573-24.424 14.54 16.759c2.985 3.44 7.825 4.597 12.043 2.877 5.311-2.164 7.966-8.283 5.918-13.64-1.626-4.255-5.79-7.005-10.329-6.828zm-.572-.66.001.002c0-.001-.001-.002-.001-.002z" fill="#3762cc"/></g><g><path d="m182.907 199.128c-6.046 0-11.49-3.724-13.662-9.407-2.818-7.372.835-15.793 8.144-18.772 5.806-2.366 12.466-.774 16.574 3.961l15.113 17.418c.911 1.051 1.134 2.496.58 3.772-.554 1.275-1.761 2.101-3.15 2.153l-23.045.865c-.186.007-.37.01-.554.01zm.004-25.264c-1.349 0-2.71.257-4.013.788-5.311 2.165-7.965 8.283-5.917 13.641 1.626 4.255 5.779 7.033 10.329 6.827l22.171-.832-14.54-16.758c-2.063-2.379-5.012-3.666-8.03-3.666zm23.143 21.083c.001.001.001.001 0 0z" fill="#3762cc"/></g><g><circle cx="210.423" cy="196.432" fill="#ffea92" r="9.032"/></g><g><path d="m210.42 207.47c-1.49 0-2.979-.307-4.388-.918-2.703-1.172-4.788-3.327-5.87-6.068-2.234-5.658.551-12.078 6.209-14.313 5.655-2.235 12.077.551 14.313 6.21 1.082 2.74 1.032 5.738-.141 8.441s-3.328 4.788-6.069 5.87c-1.313.519-2.684.778-4.054.778zm-.006-18.071c-.858 0-1.729.158-2.574.492-3.606 1.424-5.381 5.517-3.957 9.123.689 1.747 2.019 3.12 3.741 3.868s3.634.781 5.381.089c1.747-.689 3.121-2.019 3.868-3.741.748-1.724.78-3.634.09-5.381-1.09-2.761-3.746-4.45-6.549-4.45z" fill="#3762cc"/></g></g><g><g><path d="m159.646 224.938-12.976 11.258c-3.044 2.641-4.068 6.927-2.547 10.659 1.931 4.738 7.294 7.064 12.073 5.238 3.764-1.439 6.195-5.115 6.043-9.142l-.644-17.167c-.037-.988-1.202-1.494-1.949-.846z" fill="#e0ebfc"/></g><g><path d="m152.892 254.703c-4.517.001-8.829-2.699-10.62-7.093-1.846-4.527-.604-9.722 3.089-12.925l12.976-11.258c.934-.81 2.216-1.006 3.347-.516 1.133.492 1.865 1.563 1.912 2.797l.645 17.167c.182 4.886-2.763 9.34-7.329 11.086-1.318.504-2.679.742-4.02.742zm6.769-27.13-11.68 10.134c-2.398 2.08-3.204 5.454-2.006 8.394 1.51 3.702 5.774 5.554 9.507 4.125 2.965-1.134 4.878-4.027 4.759-7.2zm-.015-2.635h.01z" fill="#3762cc"/></g><g><path d="m163.809 220.681 12.976-11.258c3.044-2.641 4.068-6.927 2.547-10.659-1.931-4.738-7.294-7.064-12.073-5.238-3.764 1.439-6.195 5.115-6.043 9.142l.644 17.167c.037.989 1.202 1.494 1.949.846z" fill="#e0ebfc"/></g><g><path d="m163.045 222.973c-.428 0-.86-.087-1.272-.266-1.132-.491-1.864-1.563-1.911-2.796l-.645-17.168c-.184-4.885 2.762-9.34 7.328-11.085 5.751-2.201 12.316.652 14.64 6.351 1.846 4.527.604 9.721-3.089 12.925l-12.976 11.258c-.593.514-1.327.781-2.075.781zm7.539-28.061c-.872 0-1.755.155-2.611.482-2.965 1.134-4.878 4.026-4.758 7.198l.58 15.453 11.68-10.134c2.398-2.08 3.204-5.453 2.006-8.394-1.164-2.851-3.964-4.605-6.897-4.605z" fill="#3762cc"/></g><g><path d="m161.694 219.833 1.215-17.136c.285-4.02-2.022-7.775-5.736-9.338-4.716-1.984-10.153.162-12.24 4.833-1.644 3.679-.763 7.997 2.191 10.738l12.595 11.683c.724.673 1.905.206 1.975-.78z" fill="#e0ebfc"/></g><g><path d="m161.761 225.787-1.215 17.136c-.285 4.02 2.022 7.775 5.736 9.338 4.716 1.984 10.153-.162 12.24-4.833 1.644-3.679.763-7.997-2.191-10.738l-12.595-11.683c-.724-.673-1.905-.207-1.975.78z" fill="#e0ebfc"/></g><g><path d="m164.705 222.776 17.136 1.215c4.02.285 7.775-2.022 9.338-5.736 1.984-4.716-.162-10.153-4.833-12.24-3.679-1.644-7.997-.763-10.738 2.191l-11.684 12.594c-.672.725-.206 1.906.781 1.976z" fill="#e0ebfc"/></g><g><path d="m158.751 222.843-17.136-1.215c-4.02-.285-7.775 2.022-9.338 5.736-1.984 4.716.162 10.153 4.833 12.24 3.679 1.644 7.997.763 10.738-2.191l11.683-12.595c.673-.724.206-1.905-.78-1.975z" fill="#e0ebfc"/></g><g><path d="m160.51 222.932c-.783 0-1.55-.294-2.152-.853l-12.594-11.684c-3.584-3.323-4.652-8.556-2.657-13.021 2.51-5.618 9.168-8.247 14.842-5.86 4.507 1.896 7.302 6.447 6.956 11.323l-1.215 17.137v.001c-.088 1.231-.856 2.277-2.005 2.73-.383.152-.782.227-1.175.227zm1.184-3.099h.01zm-8.135-25.204c-2.845 0-5.578 1.645-6.8 4.378-1.296 2.899-.603 6.298 1.726 8.456l11.336 10.517 1.094-15.425c.225-3.166-1.591-6.121-4.517-7.353-.924-.389-1.888-.573-2.839-.573z" fill="#3762cc"/></g><g><path d="m169.878 254.985c-1.465 0-2.948-.283-4.37-.881-4.507-1.896-7.302-6.446-6.956-11.323l1.215-17.137c.087-1.229.854-2.276 2-2.729 1.147-.456 2.425-.217 3.329.623l12.597 11.686c3.584 3.325 4.651 8.558 2.657 13.021-1.882 4.209-6.093 6.74-10.472 6.74zm-6.242-27.345-1.094 15.425c-.225 3.167 1.59 6.122 4.517 7.353 3.681 1.551 8.008-.157 9.639-3.806 1.296-2.897.602-6.296-1.726-8.456zm-1.874-1.854h.01z" fill="#3762cc"/></g><g><path d="m182.512 226.015c-.27 0-.54-.009-.813-.028l-17.136-1.215c-1.232-.088-2.279-.855-2.731-2.004-.453-1.148-.213-2.423.627-3.328l11.682-12.594c3.325-3.584 8.556-4.653 13.021-2.657 5.619 2.511 8.248 9.169 5.86 14.843-1.79 4.253-5.947 6.983-10.51 6.983zm-15.953-5.113 15.424 1.094c3.176.232 6.122-1.591 7.353-4.517 1.552-3.685-.156-8.009-3.805-9.639-2.899-1.295-6.298-.604-8.457 1.726z" fill="#3762cc"/></g><g><path d="m140.948 242.426c-1.571 0-3.155-.324-4.654-.994-5.619-2.512-8.248-9.17-5.861-14.843 1.896-4.507 6.437-7.311 11.323-6.955l17.137 1.214h.001c1.23.088 2.277.855 2.73 2.004.453 1.147.213 2.423-.626 3.328l-11.685 12.595c-2.208 2.38-5.258 3.651-8.365 3.651zm-.003-18.821c-2.963 0-5.662 1.771-6.825 4.535-1.551 3.684.156 8.008 3.806 9.639 2.895 1.296 6.296.604 8.456-1.726l10.517-11.337-15.426-1.093c-.176-.012-.353-.018-.528-.018zm17.661 1.233h.002z" fill="#3762cc"/></g><g><path d="m163.856 224.891 11.258 12.976c2.641 3.044 6.927 4.068 10.659 2.547 4.738-1.931 7.064-7.294 5.238-12.073-1.439-3.764-5.115-6.195-9.142-6.043l-17.167.644c-.988.037-1.494 1.202-.846 1.949z" fill="#e0ebfc"/></g><g><path d="m159.599 220.728-11.258-12.976c-2.641-3.044-6.927-4.068-10.659-2.547-4.738 1.931-7.064 7.294-5.238 12.073 1.439 3.764 5.115 6.195 9.142 6.043l17.167-.644c.989-.037 1.494-1.202.846-1.949z" fill="#e0ebfc"/></g><g><path d="m182.224 243.111c-3.239 0-6.404-1.381-8.62-3.934l-11.257-12.976c-.81-.931-1.008-2.213-.517-3.346.491-1.134 1.563-1.866 2.797-1.913l17.167-.645c4.926-.16 9.341 2.763 11.086 7.328 2.196 5.749-.652 12.315-6.351 14.639-1.397.572-2.859.847-4.305.847zm-15.732-18.234 10.133 11.68c2.081 2.398 5.454 3.2 8.395 2.006 3.7-1.51 5.551-5.774 4.124-9.508-1.134-2.964-4.007-4.897-7.199-4.758zm-1.126-1.298s.001 0 0 0z" fill="#3762cc"/></g><g><path d="m141.232 225.329c-4.717 0-8.963-2.905-10.656-7.337-2.198-5.748.651-12.315 6.351-14.639 4.528-1.845 9.723-.604 12.925 3.088l11.259 12.977s0 0 .001.001c.808.933 1.005 2.215.514 3.348-.492 1.132-1.563 1.863-2.796 1.91l-17.167.645c-.144.004-.288.007-.431.007zm0-18.82c-.939 0-1.888.179-2.796.549-3.701 1.509-5.551 5.773-4.124 9.507 1.134 2.966 4.011 4.905 7.2 4.759l15.452-.58-10.135-11.681c-1.436-1.658-3.492-2.554-5.597-2.554z" fill="#3762cc"/></g><g><circle cx="161.728" cy="222.81" fill="#ffea92" r="6.728"/></g><g><path d="m161.738 231.538c-3.479 0-6.774-2.095-8.129-5.522-1.767-4.477.438-9.556 4.913-11.324 2.168-.856 4.54-.816 6.679.111 2.139.928 3.788 2.633 4.645 4.802.856 2.168.817 4.54-.11 6.679s-2.633 3.788-4.802 4.645c-1.049.413-2.131.609-3.196.609zm-.009-13.459c-.587 0-1.175.111-1.737.333-2.424.958-3.618 3.71-2.661 6.135.464 1.174 1.357 2.098 2.517 2.601 1.158.503 2.442.524 3.618.06 1.175-.464 2.098-1.356 2.601-2.516.503-1.158.523-2.443.06-3.618-.464-1.175-1.357-2.099-2.516-2.601-.605-.262-1.244-.394-1.882-.394z" fill="#3762cc"/></g></g></g><g><g><path d="m136.061 60.409c-1.132 0-2.05-.918-2.05-2.05 0-7.244 2.34-11.047 4.405-14.401 1.952-3.173 3.796-6.17 3.796-12.253s-1.844-9.08-3.796-12.253c-2.065-3.355-4.405-7.157-4.405-14.401 0-1.132.918-2.05 2.05-2.05s2.05.918 2.05 2.05c0 6.083 1.844 9.08 3.796 12.253 2.065 3.355 4.405 7.157 4.405 14.401s-2.34 11.047-4.405 14.401c-1.952 3.173-3.796 6.17-3.796 12.253 0 1.132-.918 2.05-2.05 2.05z" fill="#a4c9ff"/></g></g><g><g><path d="m152.463 60.409c-1.132 0-2.05-.918-2.05-2.05 0-7.244 2.34-11.047 4.405-14.401 1.952-3.173 3.796-6.17 3.796-12.253s-1.844-9.08-3.796-12.253c-2.065-3.355-4.405-7.157-4.405-14.401 0-1.132.918-2.05 2.05-2.05s2.05.918 2.05 2.05c0 6.083 1.844 9.08 3.796 12.253 2.065 3.355 4.405 7.157 4.405 14.401s-2.34 11.047-4.405 14.401c-1.952 3.173-3.796 6.17-3.796 12.253.001 1.132-.917 2.05-2.05 2.05z" fill="#a4c9ff"/></g></g><g><g><path d="m45.846 60.409c-1.132 0-2.05-.918-2.05-2.05 0-7.244 2.34-11.047 4.405-14.401 1.952-3.173 3.796-6.17 3.796-12.253s-1.844-9.08-3.796-12.253c-2.065-3.355-4.405-7.157-4.405-14.401 0-1.132.918-2.05 2.05-2.05s2.05.918 2.05 2.05c0 6.083 1.844 9.08 3.796 12.253 2.065 3.355 4.405 7.157 4.405 14.401s-2.34 11.047-4.405 14.401c-1.952 3.173-3.796 6.17-3.796 12.253 0 1.132-.918 2.05-2.05 2.05z" fill="#a4c9ff"/></g></g><g><g><path d="m62.248 60.409c-1.132 0-2.05-.918-2.05-2.05 0-7.244 2.34-11.047 4.405-14.401 1.952-3.173 3.796-6.17 3.796-12.253s-1.844-9.08-3.796-12.253c-2.065-3.355-4.405-7.157-4.405-14.401 0-1.132.918-2.05 2.05-2.05s2.05.918 2.05 2.05c0 6.083 1.844 9.08 3.796 12.253 2.066 3.354 4.406 7.156 4.406 14.401s-2.34 11.047-4.405 14.401c-1.952 3.173-3.796 6.17-3.796 12.253 0 1.132-.918 2.05-2.051 2.05z" fill="#a4c9ff"/></g></g><g><path d="m179.339 36.457-.929-2.246c-.221-.533-.976-.533-1.197 0l-.929 2.246c-.97 2.345-2.866 4.184-5.238 5.084l-2.052.778c-.557.211-.557.999 0 1.211l2.052.778c2.372.9 4.268 2.74 5.238 5.084l.929 2.246c.221.533.976.533 1.197 0l.929-2.246c.97-2.345 2.866-4.184 5.238-5.084l2.052-.778c.557-.211.557-.999 0-1.211l-2.052-.778c-2.372-.899-4.268-2.739-5.238-5.084z" fill="#e0ebfc"/></g><g><path d="m34.327 14.016-.929-2.246c-.221-.533-.976-.533-1.197 0l-.929 2.246c-.97 2.345-2.866 4.184-5.238 5.084l-2.052.778c-.557.211-.557.999 0 1.211l2.052.778c2.372.9 4.268 2.74 5.238 5.084l.929 2.246c.221.533.976.533 1.197 0l.929-2.246c.97-2.345 2.866-4.184 5.238-5.084l2.052-.778c.557-.211.557-.999 0-1.211l-2.052-.778c-2.372-.9-4.268-2.74-5.238-5.084z" fill="#e0ebfc"/></g></g></svg>