<svg id="Layer_1" enable-background="new 0 0 256 256" height="512" viewBox="0 0 256 256" width="512" xmlns="http://www.w3.org/2000/svg"><g><g><path d="m90.511 164.957v-22.21h44.985v22.21h40.617c15.734.02 28.472 12.94 28.452 28.674v58.369h-183.326v-58.604c.02-15.734 12.866-28.472 28.6-28.452z" fill="#f4efed"/></g><g><path d="m90.511 164.957v-22.21h44.986v22.21l-22.594 34.416z" fill="#ff9f70"/></g><g><g><path d="m176.114 164.957h-9.994c15.734.02 28.472 12.927 28.452 28.661v58.382h9.994v-58.37c.02-15.733-12.718-28.653-28.452-28.673z" fill="#d6d1cf"/></g></g><g><g><path d="m49.839 164.944 9.994.013c-15.734-.02-28.58 12.718-28.6 28.452v58.591h-9.994v-58.604c.02-15.734 12.866-28.472 28.6-28.452z" fill="#fff"/></g></g><g><path d="m56.63 253c-1.104 0-2-.895-2-2v-26.006c0-1.104.896-2 2-2s2 .896 2 2v26.006c0 1.105-.895 2-2 2z" fill="#690589"/></g><g><path d="m169.175 253c-1.104 0-2-.895-2-2v-26.006c0-1.104.895-2 2-2s2 .896 2 2v26.006c0 1.105-.896 2-2 2z" fill="#690589"/></g><g><path d="m204.565 254h-183.326c-1.105 0-2-.895-2-2v-58.605c.01-8.143 3.205-15.796 8.997-21.552 5.775-5.739 13.433-8.899 21.564-8.899h.041l38.67.012v-20.209c0-1.105.896-2 2-2h44.985c1.104 0 2 .895 2 2v20.21h38.617c8.14.01 15.794 3.22 21.555 9.036 5.747 5.805 8.907 13.49 8.896 21.641v58.366c.001 1.105-.894 2-1.999 2zm-181.326-4h179.326v-56.369c.009-7.09-2.739-13.773-7.739-18.822-5.005-5.055-11.651-7.843-18.715-7.852h-40.614c-1.105 0-2-.896-2-2v-20.21h-40.985v20.21c0 .53-.211 1.039-.586 1.414s-.884.586-1.414.586l-40.673-.013c-.012 0-.024 0-.036 0-7.07 0-13.726 2.746-18.747 7.736-5.032 5.001-7.808 11.648-7.817 18.718z" fill="#690589"/></g><g><path d="m112.902 201.373c-.001 0-.003 0-.004 0-.675-.001-1.304-.344-1.672-.909l-22.391-34.416c-.211-.325-.324-.703-.324-1.091v-22.21c0-1.105.896-2 2-2h44.985c1.104 0 2 .895 2 2v22.21c0 .39-.114.771-.328 1.098l-22.595 34.416c-.368.563-.997.902-1.671.902zm-20.39-37.01 20.399 31.354 20.587-31.357v-19.612h-40.986z" fill="#690589"/></g><g><path d="m154.39 40.076v-1.718c0-7.201-4.378-13.38-10.618-16.019-7.113-3.008-14.023-6.473-20.338-10.918l-10.518-7.403v-.018l-.013.009-.013-.009v.018l-10.518 7.403c-6.315 4.445-13.226 7.91-20.338 10.918-6.24 2.639-10.618 8.818-10.618 16.019v1.718c-10.138 0-18.125 8.639-17.332 18.746l2.961 37.713h55.845.026 55.845l2.961-37.713c.793-10.107-7.194-18.746-17.332-18.746z" fill="#fcc24c"/></g><g><g><path d="m154.39 40.076v-1.718c0-7.201-4.378-13.38-10.618-16.019-7.112-3.008-14.023-6.473-20.338-10.918l-10.503-7.392c4.097 8.402 14.137 15.306 21.241 18.31 6.24 2.639 10.618 8.818 10.618 16.019 0 .936.716 1.707 1.647 1.794 9.34.875 16.434 9.116 15.684 18.669l-2.961 37.713h9.6l2.961-37.713c.794-10.106-7.193-18.745-17.331-18.745z" fill="#dea42e"/></g></g><g><g><path d="m71.415 40.076v-1.718c0-7.201 4.378-13.38 10.618-16.019 7.113-3.008 14.023-6.473 20.338-10.918l10.503-7.392c-4.097 8.402-14.137 15.306-21.241 18.31-6.24 2.639-10.618 8.818-10.618 16.019 0 .936-.716 1.707-1.647 1.794-9.34.875-16.434 9.116-15.684 18.669l2.961 37.713h-9.6l-2.961-37.713c-.794-10.106 7.193-18.745 17.331-18.745z" fill="#fce06a"/></g></g><g><path d="m168.761 98.535h-111.717c-1.044 0-1.912-.803-1.994-1.844l-2.96-37.713c-.422-5.371 1.434-10.721 5.092-14.677 3.203-3.464 7.578-5.634 12.234-6.12.07-7.737 4.701-14.665 11.838-17.683 8.117-3.433 14.461-6.838 19.966-10.712l10.389-7.313c.103-.086.216-.162.336-.228.367-.196.78-.273 1.178-.227.246.025.488.097.713.215.131.069.253.151.365.245l10.383 7.309c5.507 3.876 11.851 7.279 19.966 10.711 7.137 3.019 11.767 9.947 11.837 17.684 4.656.486 9.032 2.656 12.234 6.12 3.658 3.956 5.514 9.306 5.093 14.677l-2.961 37.714c-.08 1.039-.948 1.842-1.992 1.842zm-109.867-4h108.018l2.816-35.87c.34-4.326-1.096-8.463-4.041-11.648-2.945-3.186-6.958-4.94-11.297-4.94-1.104 0-2-.896-2-2v-1.718c0-6.197-3.688-11.763-9.396-14.178-8.383-3.545-14.964-7.079-20.71-11.123l-9.38-6.603-9.38 6.603c-5.744 4.042-12.324 7.576-20.71 11.124-5.709 2.414-9.397 7.979-9.397 14.177v1.718c0 1.104-.896 2-2 2-4.339 0-8.351 1.755-11.296 4.94-2.946 3.185-4.381 7.322-4.042 11.648z" fill="#690589"/></g><g><path d="m68.355 84.241h-3.183c-8.23 0-14.901 6.671-14.901 14.901s6.671 14.901 14.901 14.901h3.183z" fill="#ffbd8e"/></g><g><path d="m160.717 84.241h-3.184v29.802h3.184c8.229 0 14.901-6.671 14.901-14.901s-6.672-14.901-14.901-14.901z" fill="#e18152"/></g><g><path d="m112.944 159.989c-24.626 0-44.589-20.223-44.589-45.168v-31.27c0-24.946 19.963-45.168 44.589-45.168 24.626 0 44.589 20.222 44.589 45.168v31.27c0 24.946-19.963 45.168-44.589 45.168z" fill="#ff9f70"/></g><g><path d="m112.944 38.382c-1.714 0-3.403.108-5.067.299 22.239 2.549 39.522 21.66 39.522 44.87v31.27c0 23.209-17.283 42.32-39.522 44.87 1.664.191 3.353.299 5.067.299 24.626 0 44.589-20.222 44.589-45.168v-31.27c0-24.947-19.963-45.17-44.589-45.17z" fill="#e18152"/></g><g><path d="m112.944 38.382c1.714 0 3.403.108 5.067.299-22.239 2.549-39.522 21.66-39.522 44.87v31.27c0 23.209 17.283 42.32 39.522 44.87-1.664.191-3.353.299-5.067.299-24.626 0-44.589-20.222-44.589-45.168v-31.27c0-24.947 19.963-45.17 44.589-45.17z" fill="#ffbd8e"/></g><g><path d="m112.944 161.989c-25.689 0-46.589-21.159-46.589-47.168v-31.27c0-26.009 20.9-47.169 46.589-47.169 25.69 0 46.589 21.16 46.589 47.169v31.271c0 26.008-20.899 47.167-46.589 47.167zm0-121.607c-23.484 0-42.589 19.365-42.589 43.169v31.271c0 23.803 19.105 43.168 42.589 43.168 23.483 0 42.589-19.365 42.589-43.168v-31.271c0-23.804-19.105-43.169-42.589-43.169z" fill="#690589"/></g><g><path d="m68.355 116.042h-3.184c-9.319 0-16.901-7.581-16.901-16.9s7.582-16.902 16.901-16.902h3.184c1.104 0 2 .896 2 2v29.802c0 1.104-.896 2-2 2zm-3.184-29.802c-7.114 0-12.901 5.787-12.901 12.901 0 7.113 5.787 12.9 12.901 12.9h1.184v-25.801z" fill="#690589"/></g><g><path d="m160.717 116.042h-3.184c-1.105 0-2-.896-2-2v-29.802c0-1.104.895-2 2-2h3.184c9.319 0 16.901 7.582 16.901 16.901s-7.582 16.901-16.901 16.901zm-1.184-4h1.184c7.114 0 12.901-5.787 12.901-12.9 0-7.114-5.787-12.901-12.901-12.901h-1.184z" fill="#690589"/></g><g><path d="m31.233 231.591c-1.104 0-2-.896-2-2v-12c0-1.105.896-2 2-2 1.105 0 2 .895 2 2v12c0 1.104-.896 2-2 2z" fill="#690589"/></g><g><path d="m79.51 253c-.372 0-.749-.104-1.084-.32-.928-.601-1.193-1.838-.593-2.766l33.391-51.627c.598-.928 1.838-1.194 2.765-.594.928.6 1.193 1.838.593 2.766l-33.391 51.627c-.382.592-1.026.914-1.681.914z" fill="#690589"/></g><g><path d="m194.566 124.749c-11.1 0-20.098 8.998-20.098 20.098 0 11.099 8.998 20.097 20.098 20.097 11.099 0 20.097 8.998 20.097 20.097s-8.998 20.097-20.097 20.097c22.199 0 40.195-17.996 40.195-40.195 0-22.198-17.996-40.194-40.195-40.194z" fill="#f4efed"/></g><g><path d="m201.737 144.846c0 3.96-3.211 7.171-7.171 7.171s-7.171-3.211-7.171-7.171 3.21-7.171 7.171-7.171c3.96.001 7.171 3.211 7.171 7.171z" fill="#526faa"/></g><g><path d="m194.566 205.139c11.099 0 20.097-8.998 20.097-20.097s-8.998-20.097-20.097-20.097c-11.1 0-20.098-8.998-20.098-20.097 0-11.1 8.998-20.098 20.098-20.098-22.199 0-40.195 17.996-40.195 40.195 0 22.198 17.996 40.194 40.195 40.194z" fill="#526faa"/></g><g><path d="m194.565 207.139c-23.266 0-42.194-18.929-42.194-42.194 0-23.267 18.929-42.195 42.194-42.195 23.267 0 42.195 18.929 42.195 42.195.001 23.265-18.928 42.194-42.195 42.194zm0-80.39c-21.061 0-38.194 17.135-38.194 38.195 0 21.061 17.134 38.194 38.194 38.194 21.061 0 38.195-17.134 38.195-38.194.001-21.06-17.134-38.195-38.195-38.195z" fill="#690589"/></g><g><path d="m194.565 154.018c-5.057 0-9.171-4.114-9.171-9.171s4.114-9.171 9.171-9.171 9.171 4.114 9.171 9.171c0 5.056-4.114 9.171-9.171 9.171zm0-14.342c-2.852 0-5.171 2.319-5.171 5.171s2.319 5.171 5.171 5.171 5.171-2.319 5.171-5.171-2.319-5.171-5.171-5.171z" fill="#690589"/></g><g><path d="m194.565 207.139c-1.105 0-2-.896-2-2 0-1.105.895-2 2-2 9.979 0 18.098-8.118 18.098-18.098 0-9.979-8.118-18.097-18.098-18.097-12.185 0-22.097-9.913-22.097-22.098s9.912-22.098 22.097-22.098c1.104 0 2 .896 2 2s-.896 2-2 2c-9.979 0-18.097 8.118-18.097 18.098s8.118 18.098 18.097 18.098c12.185 0 22.098 9.912 22.098 22.097s-9.913 22.098-22.098 22.098z" fill="#690589"/></g><g><circle cx="194.566" cy="185.041" fill="#f4efed" r="7.171"/></g><g><path d="m194.565 194.212c-5.057 0-9.171-4.114-9.171-9.171s4.114-9.171 9.171-9.171 9.171 4.114 9.171 9.171-4.114 9.171-9.171 9.171zm0-14.342c-2.852 0-5.171 2.319-5.171 5.171s2.319 5.171 5.171 5.171 5.171-2.319 5.171-5.171-2.319-5.171-5.171-5.171z" fill="#690589"/></g></g></svg>