<?xml version="1.0" standalone="no"?>
<!DOCTYPE svg PUBLIC "-//W3C//DTD SVG 20010904//EN"
 "http://www.w3.org/TR/2001/REC-SVG-20010904/DTD/svg10.dtd">
<svg version="1.0" xmlns="http://www.w3.org/2000/svg"
 width="567.000000pt" height="567.000000pt" viewBox="0 0 567.000000 567.000000"
 preserveAspectRatio="xMidYMid meet">

<g transform="translate(0.000000,567.000000) scale(0.100000,-0.100000)"
fill="#000000" stroke="none">
<path d="M2696 5285 c-208 -29 -388 -100 -564 -219 -105 -71 -229 -191 -298
-285 -20 -29 -50 -59 -68 -68 -17 -9 -33 -19 -36 -22 -3 -4 -48 -12 -100 -19
-264 -32 -530 -162 -720 -352 -83 -82 -198 -231 -219 -281 -5 -13 -25 -62 -45
-109 -133 -320 -136 -648 -10 -948 49 -117 50 -170 6 -277 -140 -335 -133
-672 19 -1018 73 -165 243 -368 403 -481 175 -124 452 -225 619 -226 26 0 51
-8 67 -20 14 -11 30 -20 36 -20 5 0 31 -28 57 -63 138 -189 347 -346 572 -430
156 -59 235 -72 430 -71 169 0 187 2 298 32 272 72 520 235 678 445 76 102
108 120 254 142 141 21 245 55 370 117 173 86 325 212 443 366 88 114 102 139
149 254 134 330 136 661 6 966 -48 113 -48 153 -1 273 48 122 74 227 90 357
25 220 -34 502 -155 727 -68 128 -255 326 -397 422 -142 96 -353 173 -530 195
-123 16 -155 34 -230 136 -101 135 -262 268 -425 350 -215 108 -486 157 -699
127z m84 -59 c0 -7 -13 -42 -29 -77 -89 -198 -124 -474 -86 -684 28 -149 28
-155 16 -155 -6 0 -38 25 -72 56 -180 165 -451 285 -700 310 -44 4 -69 11 -69
19 0 21 95 137 176 216 168 162 381 270 620 313 105 19 144 20 144 2z m230 -1
c260 -40 480 -148 659 -324 85 -82 174 -198 165 -212 -3 -5 -25 -9 -48 -9
-111 0 -311 -57 -456 -130 -86 -43 -211 -130 -289 -202 -29 -27 -55 -47 -57
-45 -2 1 6 48 18 102 29 134 30 362 4 485 -20 94 -59 217 -86 270 -28 55 -33
80 -18 80 7 0 56 -7 108 -15z m-130 -112 c118 -284 120 -618 4 -904 -39 -96
-44 -99 -72 -42 -123 241 -141 587 -47 868 33 99 65 166 75 160 4 -3 23 -40
40 -82z m-868 -509 c216 -41 419 -144 584 -298 77 -71 191 -212 180 -223 -3
-4 -46 -1 -95 5 -312 42 -602 211 -792 461 -27 35 -46 67 -44 71 6 10 61 4
167 -16z m1818 13 c0 -19 -122 -168 -182 -222 -129 -117 -292 -210 -460 -263
-97 -32 -272 -61 -285 -49 -11 11 61 107 139 187 180 182 403 299 653 344 104
18 135 19 135 3z m266 -2 c244 -43 473 -162 644 -335 72 -73 158 -185 149
-194 -3 -3 -52 -12 -109 -21 -250 -37 -462 -135 -658 -304 -40 -35 -75 -61
-78 -58 -3 2 3 42 13 88 14 65 18 126 17 269 0 167 -3 195 -26 282 -15 53 -43
137 -62 186 -20 49 -36 92 -36 96 0 10 53 7 146 -9z m-2390 -42 c-32 -65 -72
-187 -93 -286 -13 -60 -18 -125 -17 -242 0 -150 6 -199 40 -330 7 -27 2 -25
-69 37 -132 115 -266 194 -425 252 -85 30 -253 66 -311 66 -24 0 -41 5 -41 11
0 23 103 150 177 219 123 115 284 212 438 265 76 26 214 54 273 54 l52 1 -24
-47z m2234 -76 c117 -294 117 -602 -2 -900 -18 -45 -37 -82 -43 -82 -15 0 -74
145 -101 252 -34 132 -43 339 -20 469 27 158 104 370 126 348 5 -5 23 -44 40
-87z m-2131 46 c98 -195 134 -506 84 -733 -22 -100 -75 -255 -97 -286 -13 -16
-16 -14 -39 32 -105 207 -136 536 -74 775 28 105 84 249 98 249 5 0 17 -17 28
-37z m1919 -234 c-30 -130 -30 -381 -1 -514 12 -49 19 -92 17 -94 -2 -2 -29
20 -61 49 -129 118 -298 216 -460 267 -46 14 -83 29 -83 32 0 4 35 18 77 31
159 49 337 152 468 273 33 30 61 54 62 53 2 -2 -7 -45 -19 -97z m-1708 17
c117 -106 312 -213 457 -252 35 -9 63 -20 63 -25 0 -4 -31 -16 -69 -28 -173
-53 -350 -156 -493 -290 -53 -48 -55 -45 -32 44 9 36 17 127 21 225 5 159 0
216 -34 375 -6 28 -5 29 13 15 10 -8 44 -37 74 -64z m1075 -301 c485 -105 857
-486 940 -963 22 -124 19 -463 -4 -462 -3 0 -14 18 -23 38 -10 21 -34 57 -53
79 -33 39 -35 45 -49 174 -33 290 -131 506 -315 689 -79 79 -145 126 -271 197
-160 91 -217 110 -268 91 -16 -5 -43 -2 -80 8 -38 11 -74 15 -114 10 l-59 -6
21 30 c11 16 24 31 28 34 4 2 49 0 101 -6 98 -10 186 2 178 26 -6 20 -90 56
-130 56 -73 0 -113 -20 -177 -86 -67 -69 -93 -79 -200 -72 l-55 3 50 23 c106
48 132 64 149 92 16 28 16 31 0 37 -33 13 -97 -19 -120 -61 -15 -27 -43 -51
-95 -82 -40 -23 -75 -41 -77 -39 -3 2 8 19 23 37 47 56 70 128 41 128 -40 0
-118 -104 -132 -174 -4 -25 -14 -37 -42 -50 -136 -65 -309 -219 -401 -356
-103 -155 -160 -321 -181 -535 -15 -148 -14 -203 4 -247 9 -21 16 -54 16 -75
0 -21 13 -66 30 -101 17 -35 30 -65 30 -67 0 -4 -44 8 -71 20 -10 3 -19 21
-22 38 -10 66 -36 137 -63 176 -34 48 -41 50 -50 15 -6 -25 -8 -25 -17 -8 -18
32 -14 335 6 437 102 513 506 895 1023 966 93 13 343 5 429 -14z m1795 -12 c0
-19 -105 -146 -177 -214 -176 -168 -385 -272 -631 -314 -51 -9 -102 -15 -113
-13 -19 3 -18 6 12 53 18 28 76 93 128 146 141 142 309 245 488 299 124 37
293 62 293 43z m-3941 -18 c240 -46 464 -167 632 -341 68 -71 139 -160 139
-175 0 -22 -174 6 -305 48 -166 53 -378 184 -486 299 -50 53 -139 166 -139
176 0 13 71 9 159 -7z m1785 -19 c-6 -16 -61 -42 -70 -33 -3 3 4 15 15 26 24
24 63 29 55 7z m2265 -86 c95 -239 111 -501 47 -752 -26 -100 -78 -230 -94
-236 -6 -2 -35 30 -66 71 -149 199 -377 359 -613 434 -78 24 -100 39 -70 47
152 44 288 108 405 189 93 64 221 189 287 280 58 79 59 78 104 -33z m-4214 19
c135 -189 370 -358 600 -434 44 -14 87 -28 95 -31 8 -3 -33 -23 -91 -43 -129
-46 -252 -110 -351 -183 -81 -61 -216 -198 -266 -270 -18 -27 -37 -48 -41 -48
-9 0 -51 91 -76 165 -79 238 -78 520 3 755 27 79 63 160 71 159 3 0 29 -32 56
-70z m2105 -109 c20 -80 32 -103 69 -129 35 -25 61 -27 61 -5 0 30 -54 104
-87 119 -20 10 -33 23 -33 35 0 10 -3 25 -6 34 -5 12 1 16 24 16 47 0 80 -16
134 -65 69 -62 113 -74 175 -47 58 25 74 20 197 -62 261 -174 427 -454 464
-783 8 -72 8 -73 -21 -103 -16 -16 -32 -30 -36 -30 -11 0 -41 -57 -41 -79 0
-26 15 -26 65 -1 21 11 41 18 43 15 7 -7 -15 -119 -32 -160 -14 -33 -19 -37
-43 -31 -96 22 -98 22 -147 -29 -74 -75 -38 -91 58 -24 41 28 65 39 80 35 l22
-5 -33 -98 -32 -98 -33 2 c-18 1 -61 5 -95 9 -53 5 -67 3 -97 -16 -55 -33 -47
-50 22 -50 43 0 66 6 92 23 30 20 39 21 67 12 l33 -11 -24 -35 c-24 -35 -40
-46 -110 -74 -64 -25 -104 -61 -116 -104 -14 -52 -50 -89 -135 -138 -95 -55
-151 -78 -264 -110 -88 -25 -111 -28 -266 -28 -188 1 -263 14 -410 75 -75 32
-243 131 -258 153 -4 7 -7 26 -6 42 2 61 -2 81 -22 115 l-21 34 -19 -34 c-10
-19 -19 -48 -19 -65 l-1 -30 -40 45 c-23 25 -52 66 -65 92 l-24 47 35 21 c54
34 65 48 65 89 0 51 -10 101 -21 101 -19 0 -39 -50 -43 -109 -3 -46 -9 -67
-21 -74 -20 -11 -15 -17 -75 83 -28 46 -49 89 -46 96 3 7 22 24 43 37 65 42
91 77 95 127 2 35 -1 45 -13 48 -24 4 -79 -83 -79 -124 0 -27 -6 -36 -31 -50
-36 -18 -48 -9 -50 39 -1 15 -2 33 -3 40 -1 6 6 30 16 52 10 24 18 65 18 101
0 52 -4 64 -25 84 -21 20 -25 33 -25 81 0 150 74 363 182 522 78 115 220 247
320 298 38 19 38 19 78 -1 41 -21 114 -27 125 -10 9 14 -14 45 -49 66 l-31 18
45 19 c24 11 72 22 106 25 58 4 61 3 67 -19 4 -13 7 -36 7 -50 0 -14 9 -34 20
-44 24 -21 111 -46 123 -35 13 11 -10 48 -33 55 -44 14 -100 59 -100 80 0 18
7 22 43 24 23 1 58 6 77 11 19 5 48 8 64 7 28 -2 31 -6 46 -67z m308 21 c23
-12 42 -23 42 -26 0 -2 -13 -11 -29 -19 -21 -11 -37 -13 -61 -6 -37 11 -100
56 -100 72 0 17 101 3 148 -21z m-740 -71 c47 -31 8 -41 -56 -15 -29 13 -34
18 -22 25 19 12 49 8 78 -10z m487 6 c8 -7 23 -30 34 -50 l21 -37 -30 22 c-16
12 -34 35 -39 51 -11 31 -7 35 14 14z m-1225 -359 c0 -14 -80 -118 -139 -181
-49 -52 -183 -155 -256 -198 -91 -52 -221 -105 -314 -127 -94 -23 -221 -37
-221 -26 0 16 102 143 162 202 179 174 409 289 654 327 116 18 114 18 114 3z
m2370 -2 c274 -45 518 -182 707 -399 34 -39 69 -83 78 -98 l16 -28 -44 0 c-99
0 -264 43 -402 105 -91 41 -242 145 -322 223 -68 67 -163 185 -163 203 0 12
20 11 130 -6z m127 -352 c97 -72 235 -142 358 -181 l90 -29 -85 -28 c-175 -58
-333 -148 -464 -265 -37 -34 -70 -60 -72 -58 -2 2 6 49 18 103 28 129 30 361
4 475 -9 41 -20 89 -23 105 l-6 30 50 -46 c27 -26 86 -73 130 -106z m-2580
124 c-46 -121 -56 -433 -19 -597 12 -52 22 -96 22 -98 0 -2 -29 23 -65 57
-125 117 -283 208 -458 266 l-100 32 84 28 c176 57 343 152 460 263 63 60 86
75 76 49z m-702 -389 c159 -24 368 -112 500 -211 87 -65 185 -162 249 -247 58
-78 56 -79 -87 -55 -256 43 -484 160 -659 338 -62 62 -148 172 -148 187 0 9
18 7 145 -12z m3955 16 c0 -14 -70 -105 -134 -172 -179 -189 -427 -318 -686
-358 -52 -7 -98 -14 -102 -14 -20 0 -3 35 50 102 181 227 455 390 737 437 60
10 135 13 135 5z m-1000 -18 c0 -23 -40 -66 -62 -66 -20 0 -20 1 -2 28 29 45
64 66 64 38z m1109 -99 c95 -229 114 -508 52 -750 -25 -95 -82 -239 -97 -244
-7 -2 -32 24 -57 59 -88 123 -235 255 -377 338 -76 44 -214 103 -283 121 -26
6 -46 16 -45 21 2 5 44 23 93 39 239 81 465 244 609 441 58 79 61 78 105 -25z
m-4223 26 c53 -77 173 -198 264 -266 96 -71 241 -146 353 -183 48 -15 87 -31
87 -35 0 -4 -37 -20 -82 -35 -234 -77 -466 -243 -609 -436 -28 -37 -55 -68
-59 -68 -13 0 -69 144 -98 249 -24 88 -26 112 -26 291 0 178 2 203 26 290 27
100 86 250 98 250 4 0 24 -26 46 -57z m3164 -79 c0 -7 17 -34 39 -61 l38 -49
-21 -70 -22 -69 -7 36 c-4 19 -16 45 -26 56 -15 16 -21 42 -26 114 -6 86 -5
92 9 75 9 -11 16 -25 16 -32z m-1994 -49 c-27 -27 -34 -19 -15 18 21 38 34 47
37 26 2 -10 -8 -30 -22 -44z m1950 -95 c-5 -74 -4 -97 10 -125 9 -19 23 -35
31 -35 10 0 4 -20 -24 -71 l-38 -71 -6 49 c-4 26 -17 71 -29 98 -13 31 -20 61
-17 80 6 32 65 165 74 165 3 0 3 -41 -1 -90z m-2078 -94 c70 -21 83 -34 130
-139 35 -76 23 -79 -40 -10 -55 60 -74 74 -112 83 -46 10 -53 -1 -27 -43 23
-38 58 -57 102 -57 29 0 58 -19 137 -88 l27 -24 -35 8 c-19 5 -64 8 -99 9
l-64 0 -48 84 c-45 78 -96 191 -114 251 -7 23 -4 21 36 -15 30 -27 64 -46 107
-59z m2119 38 c13 -37 0 -70 -17 -44 -11 17 -13 63 -3 73 8 9 8 9 20 -29z
m-103 -126 c15 -35 15 -38 -2 -47 -24 -13 -99 -148 -107 -194 -6 -37 -5 -38
17 -32 39 11 -129 -145 -225 -209 -106 -71 -233 -127 -365 -162 -119 -32 -369
-44 -503 -25 -172 26 -342 90 -489 186 -75 50 -280 239 -269 249 3 3 21 1 40
-5 19 -5 63 -10 98 -10 62 0 67 -2 157 -64 138 -94 208 -131 325 -169 266 -87
543 -68 792 53 133 64 326 196 352 240 11 18 36 52 55 75 46 53 64 82 80 129
13 43 21 40 44 -15z m-1992 -28 c33 -30 25 -40 -15 -19 -22 12 -37 28 -37 42
0 15 21 6 52 -23z m-127 -107 c-152 -237 -425 -425 -715 -492 -101 -24 -210
-37 -210 -25 0 16 111 151 172 210 128 123 283 216 455 274 86 28 223 57 287
59 l28 1 -17 -27z m2479 -7 c192 -49 379 -153 524 -290 74 -71 172 -191 172
-213 0 -12 -9 -12 -145 9 -276 41 -572 221 -739 447 -25 35 -46 68 -46 74 0
15 121 1 234 -27z m-2354 -118 c62 -159 74 -235 74 -433 -1 -161 -3 -190 -26
-276 -30 -109 -74 -227 -94 -248 -11 -13 -17 -7 -38 40 -63 144 -106 340 -106
489 0 149 42 350 101 478 28 63 31 66 45 48 8 -11 28 -55 44 -98z m306 88 c3
-13 4 -37 2 -52 l-3 -29 -18 26 c-12 18 -16 36 -11 53 8 32 22 34 30 2z m1514
18 c0 -12 -102 -104 -116 -104 -21 0 -17 26 9 51 42 41 107 73 107 53z m288
-94 c112 -285 109 -613 -8 -893 -17 -42 -36 -77 -42 -77 -30 0 -108 244 -129
405 -25 192 20 463 103 629 25 49 35 40 76 -64z m-2329 -191 c-51 -246 -15
-558 87 -761 34 -68 33 -70 -33 -63 -297 35 -555 162 -749 367 -67 71 -140
166 -132 173 1 1 42 8 90 14 270 36 549 170 717 345 19 20 36 34 38 32 2 -2
-6 -50 -18 -107z m498 -46 c85 -60 231 -133 336 -168 48 -15 87 -31 87 -34 0
-4 -33 -17 -72 -30 -165 -51 -343 -154 -472 -272 -57 -52 -68 -59 -63 -39 30
111 41 207 40 345 0 138 -6 183 -41 335 -4 21 5 16 59 -34 35 -32 92 -78 126
-103z m1619 80 c-39 -171 -39 -385 -1 -548 8 -37 15 -71 15 -76 0 -5 -35 20
-77 56 -141 120 -299 210 -450 255 -46 14 -83 28 -83 32 0 3 33 16 73 28 159
48 340 152 467 268 36 33 67 58 68 57 2 -2 -3 -34 -12 -72z m384 12 c119 -107
272 -196 430 -249 102 -34 253 -66 311 -66 18 0 29 -5 29 -14 0 -43 -205 -259
-319 -336 -121 -81 -282 -151 -416 -180 -67 -15 -187 -30 -196 -24 -4 2 13 52
37 111 100 248 117 541 47 803 -6 23 -5 24 13 10 10 -8 39 -33 64 -55z m-1340
-334 c0 -17 -87 -127 -152 -192 -177 -177 -404 -294 -648 -334 -156 -25 -156
-25 -74 82 169 220 444 387 721 437 92 17 153 20 153 7z m291 -11 c239 -49
447 -159 613 -325 63 -64 156 -180 156 -196 0 -18 -218 20 -330 58 -216 74
-417 218 -555 397 -30 40 -55 75 -55 79 0 13 71 7 171 -13z m-183 -108 c73
-181 103 -381 84 -559 -15 -132 -51 -270 -96 -366 l-34 -72 -31 67 c-130 281
-135 645 -11 942 18 42 37 75 43 73 7 -2 27 -40 45 -85z m-209 -187 c-54 -257
-25 -534 81 -771 17 -36 30 -68 30 -70 0 -7 -91 5 -183 22 -225 44 -439 159
-605 325 -91 91 -158 181 -148 198 4 6 24 11 45 11 22 0 75 7 120 15 219 42
431 148 601 300 40 36 74 64 76 63 1 -2 -6 -43 -17 -93z m527 -81 c173 -115
432 -204 595 -204 22 0 39 -4 39 -8 0 -5 -14 -29 -32 -53 -193 -269 -504 -452
-828 -488 -41 -5 -77 -7 -79 -5 -2 2 13 41 33 88 67 155 88 259 93 451 4 145
2 185 -16 272 -12 55 -21 106 -21 113 0 6 30 -16 68 -50 37 -34 104 -86 148
-116z"/>
<path d="M2640 3374 c-17 -43 -12 -54 52 -120 73 -77 63 -87 -12 -11 l-53 52
8 -60 c4 -33 8 -60 8 -61 1 0 25 -14 52 -32 28 -17 66 -38 85 -46 33 -14 34
-15 9 -16 -15 0 -53 17 -85 39 -33 22 -60 39 -61 37 -1 -1 1 -15 5 -30 7 -26
21 -34 132 -76 69 -26 133 -51 143 -55 9 -4 17 -3 17 3 0 5 16 33 35 62 l35
52 -62 58 c-161 146 -266 230 -290 230 -5 0 -13 -12 -18 -26z"/>
<path d="M3084 3136 c-37 -17 -64 -40 -93 -78 -23 -30 -41 -60 -41 -65 0 -6
12 -14 28 -18 15 -4 22 -9 16 -12 -12 -4 -197 60 -287 101 -80 35 -253 86
-294 86 -40 0 -40 -2 4 -107 30 -74 31 -75 236 -103 71 -10 131 -20 134 -23
12 -13 -296 25 -319 39 -16 10 -6 -12 30 -66 l38 -55 116 0 c73 0 111 -3 101
-9 -9 -5 -59 -8 -111 -8 -80 1 -92 -1 -82 -13 20 -24 131 -75 165 -75 17 0 34
-3 38 -6 3 -3 -9 -31 -26 -63 l-31 -57 -239 -74 c-132 -41 -250 -82 -263 -93
-31 -24 -31 -61 1 -92 30 -31 68 -32 120 -2 33 19 39 27 37 49 -2 14 2 29 8
33 15 9 42 -15 36 -32 -3 -7 -2 -13 3 -13 25 0 109 32 144 56 35 22 39 23 23
6 -27 -31 -114 -72 -152 -72 -37 0 -124 -46 -124 -66 0 -20 46 -28 83 -13 49
19 181 94 297 169 82 53 116 69 156 74 113 14 337 110 396 169 42 42 97 133
133 218 29 68 29 69 11 69 -27 0 -40 28 -27 57 15 33 -1 52 -72 88 -65 32
-126 32 -193 1z m193 -81 c2 -5 -8 -10 -22 -10 -25 0 -31 6 -18 19 9 9 36 3
40 -9z"/>
<path d="M3367 3053 c-13 -13 -7 -38 12 -50 15 -10 33 -10 75 -1 31 6 56 14
56 18 0 7 -99 40 -122 40 -8 0 -18 -3 -21 -7z"/>
</g>
</svg>
